<!-- icon666.com - MILLIONS OF FREE VECTOR ICONS --><svg version="1.1" id="Capa_1" xmlns="http://www.w3.org/2000/svg" xmlns:xlink="http://www.w3.org/1999/xlink" x="0px" y="0px" viewBox="0 0 454.818 454.818" style="enable-background:new 0 0 454.818 454.818;" xml:space="preserve"><g><g><path d="M265.544,291.403c-16.303-0.022-29.538,13.177-29.56,29.48c0,0.013,0,0.027,0,0.04 c0.022,16.279,13.201,29.476,29.48,29.52c16.303,0.022,29.538-13.177,29.56-29.48 C295.046,304.659,281.848,291.425,265.544,291.403z M265.544,342.483c-11.885,0.022-21.538-9.595-21.56-21.48 c0-0.027,0-0.053,0-0.08c0.022-11.854,9.626-21.458,21.48-21.48c11.885-0.022,21.538,9.595,21.56,21.48 C287.046,332.808,277.429,342.46,265.544,342.483z"></path></g></g><g><g><path d="M113.704,56.723l-16.48-16.48c-1.56-1.551-4.08-1.551-5.64,0l-16.48,16.48c-1.551,1.56-1.551,4.08,0,5.64 c1.556,1.569,4.088,1.579,5.657,0.023c0.008-0.008,0.016-0.015,0.023-0.023l13.64-13.64l13.64,13.64 c0.739,0.754,1.745,1.185,2.8,1.2c2.209,0.013,4.01-1.768,4.023-3.977C114.894,58.511,114.467,57.479,113.704,56.723z"></path></g></g><g><g><path d="M136.504,56.723l-16.44-16.48c-1.568-1.568-4.112-1.568-5.68,0c-1.568,1.569-1.568,4.112,0,5.68l16.48,16.44 c0.748,0.763,1.771,1.196,2.84,1.2c2.209-0.009,3.992-1.808,3.983-4.017C137.683,58.485,137.257,57.47,136.504,56.723z"></path></g></g><g><g><path d="M121.904,344.603h-45.44c-2.209,0-4,1.791-4,4c0,2.209,1.791,4,4,4h45.44c2.209,0,4-1.791,4-4 C125.904,346.393,124.113,344.603,121.904,344.603z"></path></g></g><g><g><path d="M121.904,366.003h-45.44c-2.209,0-4,1.791-4,4c0,2.209,1.791,4,4,4h45.44c2.209,0,4-1.791,4-4 C125.904,367.793,124.113,366.003,121.904,366.003z"></path></g></g><g><g><path d="M121.904,113.003h-45.44c-2.209,0-4,1.791-4,4c0,2.209,1.791,4,4,4h45.44c2.209,0,4-1.791,4-4 C125.904,114.794,124.113,113.003,121.904,113.003z"></path></g></g><g><g><path d="M307.584,152.003H76.464c-2.209,0-4,1.791-4,4c0,2.209,1.791,4,4,4h231.12c2.209,0,4-1.791,4-4 C311.584,153.794,309.793,152.003,307.584,152.003z"></path></g></g><g><g><path d="M307.584,184.003H76.464c-2.209,0-4,1.791-4,4c0,2.209,1.791,4,4,4h231.12c2.209,0,4-1.791,4-4 C311.584,185.794,309.793,184.003,307.584,184.003z"></path></g></g><g><g><path d="M307.584,216.003H76.464c-2.209,0-4,1.791-4,4c0,2.209,1.791,4,4,4h231.12c2.209,0,4-1.791,4-4 C311.584,217.794,309.793,216.003,307.584,216.003z"></path></g></g><g><g><path d="M355.584,68.883c0.015-0.12,0.015-0.24,0-0.36c-0.307-0.516-0.716-0.965-1.2-1.32l-66.52-66.36 c-0.318-0.336-0.699-0.608-1.12-0.8h-0.36c-0.358-0.057-0.722-0.057-1.08,0h-0.24H36.024c-2.209,0-4,1.791-4,4v420 c0.206,2.052,1.938,3.61,4,3.6h185.68v23.12c0.006,2.209,1.802,3.995,4.011,3.989c0.652-0.002,1.294-0.163,1.869-0.469l28.24-15.2 l28.24,15.2c1.238,0.715,2.762,0.715,4,0c1.203-0.713,1.946-2.002,1.96-3.4v-48.8c0-2.209-1.791-4-4-4c-2.209,0-4,1.791-4,4v42.08 l-24.32-12.96c-1.175-0.626-2.585-0.626-3.76,0l-24.24,13v-57.8c0-2.209-1.791-4-4-4c-2.209,0-4,1.791-4,4v33.24H40.024v-412h241 v62.56c0,2.209,1.791,4,4,4h62.56v345.44h-36.8v-34.56c0-2.209-1.791-4-4-4c-2.209,0-4,1.791-4,4v57.84c0,2.209,1.791,4,4,4 c2.209,0,4-1.791,4-4v-15.32h40.8c2.209,0,4-1.791,4-4v-353.4c0,0,0,0,0-0.24C355.626,69.604,355.626,69.241,355.584,68.883z M289.024,66.203v-52.88l52.88,52.88H289.024z"></path></g></g><g><g><path d="M193.024,443.643h-177v-416c0-2.209-1.791-4-4-4s-4,1.791-4,4v420c0,2.209,1.791,4,4,4h181c2.209,0,4-1.791,4-4 C197.024,445.433,195.233,443.643,193.024,443.643z"></path></g></g><g><g><path d="M327.904,327.203c7.656-5.396,9.489-15.977,4.094-23.633c-2.283-3.239-5.627-5.577-9.453-6.607 c-4.738-1.325-7.547-6.196-6.32-10.96c2.39-9.057-3.014-18.336-12.071-20.726c-3.817-1.007-7.866-0.651-11.449,1.006 c-4.507,2.108-9.871,0.177-12-4.32c-3.943-8.472-14.007-12.144-22.479-8.201c-3.614,1.682-6.518,4.586-8.201,8.201 c-2.129,4.497-7.493,6.428-12,4.32c-8.501-3.933-18.581-0.23-22.514,8.271c-1.658,3.583-2.013,7.632-1.006,11.449 c1.227,4.764-1.582,9.635-6.32,10.96c-9.018,2.531-14.278,11.893-11.747,20.911c1.062,3.783,3.404,7.081,6.627,9.329 c4.029,2.836,5.012,8.394,2.2,12.44c-3.755,5.364-4.051,12.42-0.76,18.08c3.241,5.682,9.48,8.973,16,8.44 c4.861-0.397,9.154,3.151,9.68,8c0.886,9.347,9.182,16.206,18.529,15.319c3.886-0.368,7.527-2.063,10.311-4.799 c3.495-3.478,9.145-3.478,12.64,0c6.676,6.601,17.44,6.54,24.041-0.136c2.766-2.797,4.476-6.467,4.839-10.384 c0.506-4.86,4.812-8.419,9.68-8c9.333,0.8,17.547-6.116,18.347-15.449c0.339-3.952-0.718-7.898-2.987-11.151 C322.851,335.501,323.884,329.997,327.904,327.203z M323.144,320.603c-7.539,5.446-9.32,15.931-4,23.56 c2.816,4.096,1.779,9.699-2.317,12.515c-1.665,1.145-3.667,1.696-5.683,1.565c-9.284-0.764-17.453,6.086-18.32,15.36 c-0.261,3.482-2.575,6.473-5.88,7.6c-3.261,1.244-6.948,0.444-9.4-2.04c-6.619-6.627-17.358-6.634-23.985-0.015 c-0.005,0.005-0.01,0.01-0.015,0.015c-2.452,2.484-6.139,3.284-9.4,2.04c-3.305-1.127-5.619-4.118-5.88-7.6 c-0.804-8.729-8.114-15.415-16.88-15.44h-1.44c-4.96,0.322-9.242-3.437-9.565-8.397c-0.131-2.016,0.42-4.018,1.565-5.683 c5.32-7.629,3.539-18.114-4-23.56c-2.954-1.9-4.494-5.375-3.92-8.84c0.57-3.434,3.11-6.209,6.48-7.08 c8.996-2.459,14.344-11.693,12-20.72c-0.95-3.363,0.199-6.967,2.92-9.16c2.64-2.274,6.373-2.776,9.52-1.28 c8.421,3.923,18.431,0.361,22.48-8c2.179-4.418,7.527-6.234,11.945-4.055c1.761,0.868,3.186,2.294,4.055,4.055 c4.049,8.361,14.06,11.923,22.48,8c3.147-1.496,6.88-0.994,9.52,1.28c2.721,2.193,3.87,5.797,2.92,9.16 c-2.344,9.027,3.004,18.261,12,20.72c4.779,1.286,7.61,6.202,6.325,10.98C326.121,317.619,324.873,319.396,323.144,320.603z"></path></g></g><g><g><path d="M445.773,242.714c-0.009-0.011-0.019-0.021-0.029-0.032c-4.248-4.722-6.599-10.848-6.6-17.2v-79.56 c0.022-10.317-8.323-18.698-18.64-18.72c-0.013,0-0.027,0-0.04,0h-1.32v-30.24c-0.021-8.22-5.68-15.352-13.68-17.24v-12 c0-2.209-1.791-4-4-4c-2.209,0-4,1.791-4,4v12c-8.08,1.809-13.838,8.96-13.88,17.24v293.64c0.004,0.809,0.24,1.6,0.68,2.28 l13.88,20c1.248,1.823,3.738,2.288,5.561,1.039c0.408-0.279,0.76-0.632,1.039-1.039l13.72-20c0.44-0.68,0.676-1.471,0.68-2.28 v-255.4h1.32c5.889,0.022,10.658,4.791,10.68,10.68v79.6c-0.002,8.336,3.092,16.375,8.68,22.56c0.756,0.838,1.831,1.317,2.96,1.32 c0.986,0.008,1.94-0.348,2.68-1C447.109,246.888,447.247,244.359,445.773,242.714z M391.584,96.963 c-0.023-5.368,4.31-9.738,9.679-9.761c0.067,0,0.134,0,0.201,0.001h-0.16c5.353,0.022,9.68,4.367,9.68,9.72v12.28h-19.4V96.963z M391.584,117.203h19.4v10h-19.4V117.203z M410.984,389.363l-9.52,14.16l-9.88-14.16v-10.8h19.4V389.363z M391.584,370.563 v-235.36h19.4l0.16,235.36H391.584z"></path></g></g></svg>